<?xml version="1.0" encoding="utf-8"?>
<!-- Generator: Adobe Illustrator 20.0.0, SVG Export Plug-In . SVG Version: 6.00 Build 0)  -->
<svg version="1.1" id="图层_1" xmlns="http://www.w3.org/2000/svg" xmlns:xlink="http://www.w3.org/1999/xlink" x="0px" y="0px"
	 viewBox="0 0 200 200" style="enable-background:new 0 0 200 200;" xml:space="preserve">
<style type="text/css">
	.st0{fill:#36AC70;}
	.st1{fill:#36AC70;stroke:#319FD2;stroke-width:3;stroke-miterlimit:10;}
</style>
<g>
	<g>
		<polygon class="st0" points="53.6,79.3 53.6,114.1 39,114.1 39,119 53.6,119 58.2,119 58.5,119 58.5,79.3 		"/>
		<path class="st0" d="M60,120.5H37.5v-7.9h14.6V77.8H60C60,77.8,60,120.5,60,120.5z M40.5,117.5H57V80.8h-1.9v34.8H40.5V117.5z"/>
	</g>
</g>
<polygon class="st1" points="74.9,79.3 74.9,79.4 75,79.3 "/>
<g>
	<polygon class="st0" points="88.9,96.5 76.9,96.5 76.1,101.5 89.7,101.5 	"/>
	<path class="st0" d="M91.5,103H74.3l1.3-7.9h14.5L91.5,103z M77.9,100h10.1L87.6,98h-9.4L77.9,100z"/>
</g>
<g>
	<polygon class="st0" points="90.8,79.3 90.7,79.3 86,79.3 79.8,79.3 75,79.3 74.9,79.4 68.3,119 73.2,119 76.1,101.5 76.9,96.5 
		79,84.3 86.8,84.3 88.9,96.5 89.7,101.5 92.6,119 97.5,119 	"/>
	<path class="st0" d="M99.2,120.5h-7.9l-5.8-34.8h-5.3l-5.8,34.8h-7.9l7.1-42.7l1.3,0h17.2L99.2,120.5z M93.9,117.5h1.8l-6.1-36.7
		H76.2l-6.1,36.7h1.8l5.8-34.8h10.4L93.9,117.5z"/>
</g>
<g>
	<g>
		<rect x="104.6" y="79.3" class="st0" width="4.9" height="39.7"/>
		<path class="st0" d="M111,120.5h-7.9V77.8h7.9V120.5z M106.1,117.5h1.9V80.8h-1.9V117.5z"/>
	</g>
	<g>
		<rect x="126.7" y="89.8" class="st0" width="4.9" height="29.2"/>
		<path class="st0" d="M133.1,120.5h-7.9V88.3h7.9V120.5z M128.2,117.5h1.9V91.3h-1.9V117.5z"/>
	</g>
	<g>
		<rect x="105.2" y="114.1" class="st0" width="26.4" height="4.9"/>
		<path class="st0" d="M133.1,120.5h-29.4v-7.9h29.4V120.5z M106.7,117.5h23.4v-1.9h-23.4C106.7,115.6,106.7,117.5,106.7,117.5z"/>
	</g>
	<g>
		<polygon class="st0" points="122.8,84.3 105.2,84.3 105.2,79.3 124.5,79.3 		"/>
		<path class="st0" d="M123.9,85.8h-20.1v-7.9h21.5L123.9,85.8z M106.7,82.8h15l0.7-1.9h-15.6V82.8z"/>
	</g>
	<g>
		<polyline class="st0" points="131.6,89.8 124.5,79.3 123.2,81.8 122.8,84.3 126.7,89.8 		"/>
		<polygon class="st0" points="125.5,90.7 121.2,84.6 121.7,81.4 125.3,77.8 133.1,88.3 130.4,90.7 124.6,82.2 124.6,82.3 
			124.4,83.9 127.9,88.9 		"/>
	</g>
</g>
<g>
	<g>
		<rect x="139.6" y="82.2" class="st0" width="4.9" height="36.9"/>
		<path class="st0" d="M146,120.5h-7.9V80.7h7.9V120.5z M141.1,117.5h1.9V83.7h-1.9V117.5z"/>
	</g>
	<g>
		<rect x="139.6" y="79.3" class="st0" width="21.4" height="4.9"/>
		<path class="st0" d="M162.5,85.8h-24.4v-7.9h24.4V85.8z M141.1,82.8h18.4v-1.9h-18.4V82.8z"/>
	</g>
	<g>
		<rect x="139.6" y="114.1" class="st0" width="21.4" height="4.9"/>
		<path class="st0" d="M162.5,120.5h-24.4v-7.9h24.4V120.5z M141.1,117.5h18.4v-1.9h-18.4V117.5z"/>
	</g>
	<g>
		<rect x="139.6" y="96.7" class="st0" width="17.7" height="4.9"/>
		<path class="st0" d="M158.8,103.1h-20.7v-7.9h20.7V103.1z M141.1,100.1h14.7v-1.9h-14.7L141.1,100.1L141.1,100.1z"/>
	</g>
</g>
<g>
	<path class="st0" d="M23.8,99.5c0-6.6,0.9-13,2.4-19.1h-5.6H0v39.2h20.9h5.6C24.7,113.2,23.8,106.4,23.8,99.5z"/>
	<path class="st0" d="M179.4,80.4h-5.6c1.6,6.1,2.4,12.5,2.4,19.1c0,7-1,13.7-2.7,20.1h5.6H200V80.4H179.4z"/>
</g>
<path class="st0" d="M98.3,176.2c-6.6,0-13-0.9-19.1-2.4v5.6V200h39.2v-20.9v-5.6C112.1,175.3,105.3,176.2,98.3,176.2z"/>
<path class="st0" d="M79.3,20.6v5.6c6.1-1.6,12.5-2.4,19.1-2.4c7,0,13.7,1,20.1,2.7v-5.6V0H79.3V20.6L79.3,20.6z"/>
<path class="st0" d="M100,25c32.1,0,59.5,20.2,70.2,48.5h13.2c-11.2-35.4-44.3-61-83.4-61s-72.2,25.6-83.4,61h13.2
	C40.5,45.2,67.9,25,100,25z"/>
<path class="st0" d="M100,175c-29.4,0-54.8-16.9-67.1-41.5H19.1c13.1,31.7,44.4,54,80.9,54s67.7-22.3,80.9-54h-13.8
	C154.8,158.1,129.4,175,100,175z"/>
</svg>
